<svg viewBox="0 0 330 200" xmlns="http://www.w3.org/2000/svg"><g><g><g><g><g><line x1="48.8125" y1="177" x2="43.8125" y2="177" style="visibility: inherit;" fill="rgb(0, 0, 0)" stroke="rgb(204, 204, 204)" stroke-width="1px"></line><line x1="48.8125" y1="154.875" x2="43.8125" y2="154.875" style="visibility: inherit;" fill="rgb(0, 0, 0)" stroke="rgb(204, 204, 204)" stroke-width="1px"></line><line x1="48.8125" y1="132.75" x2="43.8125" y2="132.75" style="visibility: inherit;" fill="rgb(0, 0, 0)" stroke="rgb(204, 204, 204)" stroke-width="1px"></line><line x1="48.8125" y1="110.62499999999999" x2="43.8125" y2="110.62499999999999" style="visibility: inherit;" fill="rgb(0, 0, 0)" stroke="rgb(204, 204, 204)" stroke-width="1px"></line><line x1="48.8125" y1="88.49999999999999" x2="43.8125" y2="88.49999999999999" style="visibility: inherit;" fill="rgb(0, 0, 0)" stroke="rgb(204, 204, 204)" stroke-width="1px"></line><line x1="48.8125" y1="66.375" x2="43.8125" y2="66.375" style="visibility: inherit;" fill="rgb(0, 0, 0)" stroke="rgb(204, 204, 204)" stroke-width="1px"></line><line x1="48.8125" y1="44.25" x2="43.8125" y2="44.25" style="visibility: inherit;" fill="rgb(0, 0, 0)" stroke="rgb(204, 204, 204)" stroke-width="1px"></line><line x1="48.8125" y1="22.125" x2="43.8125" y2="22.125" style="visibility: inherit;" fill="rgb(0, 0, 0)" stroke="rgb(204, 204, 204)" stroke-width="1px"></line><line x1="48.8125" y1="0" x2="43.8125" y2="0" style="visibility: inherit;" fill="rgb(0, 0, 0)" stroke="rgb(204, 204, 204)" stroke-width="1px"></line></g><g transform="translate(38.8125, 0)"><text x="0" y="177" dx="0em" dy="0.3em" style="text-anchor: end; visibility: hidden; font-family: &quot;Helvetica Neue&quot;, sans-serif; font-size: 12px; font-weight: 200;" fill="rgb(50, 49, 63)" stroke="none" stroke-width="1px">-0.1</text><text x="0" y="154.875" dx="0em" dy="0.3em" style="text-anchor: end; visibility: inherit; font-family: &quot;Helvetica Neue&quot;, sans-serif; font-size: 12px; font-weight: 200;" fill="rgb(50, 49, 63)" stroke="none" stroke-width="1px">0</text><text x="0" y="132.75" dx="0em" dy="0.3em" style="text-anchor: end; visibility: hidden; font-family: &quot;Helvetica Neue&quot;, sans-serif; font-size: 12px; font-weight: 200;" fill="rgb(50, 49, 63)" stroke="none" stroke-width="1px">0.1</text><text x="0" y="110.62499999999999" dx="0em" dy="0.3em" style="text-anchor: end; visibility: inherit; font-family: &quot;Helvetica Neue&quot;, sans-serif; font-size: 12px; font-weight: 200;" fill="rgb(50, 49, 63)" stroke="none" stroke-width="1px">0.2</text><text x="0" y="88.49999999999999" dx="0em" dy="0.3em" style="text-anchor: end; visibility: hidden; font-family: &quot;Helvetica Neue&quot;, sans-serif; font-size: 12px; font-weight: 200;" fill="rgb(50, 49, 63)" stroke="none" stroke-width="1px">0.3</text><text x="0" y="66.375" dx="0em" dy="0.3em" style="text-anchor: end; visibility: inherit; font-family: &quot;Helvetica Neue&quot;, sans-serif; font-size: 12px; font-weight: 200;" fill="rgb(50, 49, 63)" stroke="none" stroke-width="1px">0.4</text><text x="0" y="44.25" dx="0em" dy="0.3em" style="text-anchor: end; visibility: hidden; font-family: &quot;Helvetica Neue&quot;, sans-serif; font-size: 12px; font-weight: 200;" fill="rgb(50, 49, 63)" stroke="none" stroke-width="1px">0.5</text><text x="0" y="22.125" dx="0em" dy="0.3em" style="text-anchor: end; visibility: inherit; font-family: &quot;Helvetica Neue&quot;, sans-serif; font-size: 12px; font-weight: 200;" fill="rgb(50, 49, 63)" stroke="none" stroke-width="1px">0.6</text><text x="0" y="0" dx="0em" dy="0.3em" style="text-anchor: end; visibility: hidden; font-family: &quot;Helvetica Neue&quot;, sans-serif; font-size: 12px; font-weight: 200;" fill="rgb(50, 49, 63)" stroke="none" stroke-width="1px">0.7</text></g><line x1="48.8125" y1="0" x2="48.8125" y2="177" fill="rgb(0, 0, 0)" stroke="rgb(204, 204, 204)" stroke-width="1px"></line></g></g><g transform="translate(48, 0)" clip-path="url(#clip_0)"><clipPath id="clip_0"><rect width="281" height="177"></rect></clipPath><g><g><g><line x1="0" y1="0" x2="0" y2="177" fill="rgb(0, 0, 0)" stroke="rgb(60, 60, 60)" stroke-width="1px" opacity="0.25"></line><line x1="23.432291666666664" y1="0" x2="23.432291666666664" y2="177" fill="rgb(0, 0, 0)" stroke="rgb(60, 60, 60)" stroke-width="1px" opacity="0.25"></line><line x1="46.86458333333333" y1="0" x2="46.86458333333333" y2="177" fill="rgb(0, 0, 0)" stroke="rgb(60, 60, 60)" stroke-width="1px" opacity="0.25"></line><line x1="70.296875" y1="0" x2="70.296875" y2="177" fill="rgb(0, 0, 0)" stroke="rgb(60, 60, 60)" stroke-width="1px" opacity="0.25"></line><line x1="93.72916666666666" y1="0" x2="93.72916666666666" y2="177" fill="rgb(0, 0, 0)" stroke="rgb(60, 60, 60)" stroke-width="1px" opacity="0.25"></line><line x1="117.16145833333334" y1="0" x2="117.16145833333334" y2="177" fill="rgb(0, 0, 0)" stroke="rgb(60, 60, 60)" stroke-width="1px" opacity="0.25"></line><line x1="140.59375" y1="0" x2="140.59375" y2="177" fill="rgb(0, 0, 0)" stroke="rgb(60, 60, 60)" stroke-width="1px" opacity="0.25"></line><line x1="164.02604166666669" y1="0" x2="164.02604166666669" y2="177" fill="rgb(0, 0, 0)" stroke="rgb(60, 60, 60)" stroke-width="1px" opacity="0.25"></line><line x1="187.45833333333331" y1="0" x2="187.45833333333331" y2="177" fill="rgb(0, 0, 0)" stroke="rgb(60, 60, 60)" stroke-width="1px" opacity="0.25"></line><line x1="210.890625" y1="0" x2="210.890625" y2="177" fill="rgb(0, 0, 0)" stroke="rgb(60, 60, 60)" stroke-width="1px" opacity="0.25"></line><line x1="234.32291666666669" y1="0" x2="234.32291666666669" y2="177" fill="rgb(0, 0, 0)" stroke="rgb(60, 60, 60)" stroke-width="1px" opacity="0.25"></line><line x1="257.7552083333333" y1="0" x2="257.7552083333333" y2="177" fill="rgb(0, 0, 0)" stroke="rgb(60, 60, 60)" stroke-width="1px" opacity="0.25"></line><line x1="281.1875" y1="0" x2="281.1875" y2="177" fill="rgb(0, 0, 0)" stroke="rgb(60, 60, 60)" stroke-width="1px" opacity="0.25"></line></g><g><line x1="0" y1="177" x2="281.1875" y2="177" fill="rgb(0, 0, 0)" stroke="rgb(60, 60, 60)" stroke-width="1px" opacity="0.25"></line><line x1="0" y1="154.875" x2="281.1875" y2="154.875" fill="rgb(0, 0, 0)" stroke="rgb(60, 60, 60)" stroke-width="1px" opacity="0.25"></line><line x1="0" y1="132.75" x2="281.1875" y2="132.75" fill="rgb(0, 0, 0)" stroke="rgb(60, 60, 60)" stroke-width="1px" opacity="0.25"></line><line x1="0" y1="110.62499999999999" x2="281.1875" y2="110.62499999999999" fill="rgb(0, 0, 0)" stroke="rgb(60, 60, 60)" stroke-width="1px" opacity="0.25"></line><line x1="0" y1="88.49999999999999" x2="281.1875" y2="88.49999999999999" fill="rgb(0, 0, 0)" stroke="rgb(60, 60, 60)" stroke-width="1px" opacity="0.25"></line><line x1="0" y1="66.375" x2="281.1875" y2="66.375" fill="rgb(0, 0, 0)" stroke="rgb(60, 60, 60)" stroke-width="1px" opacity="0.25"></line><line x1="0" y1="44.25" x2="281.1875" y2="44.25" fill="rgb(0, 0, 0)" stroke="rgb(60, 60, 60)" stroke-width="1px" opacity="0.25"></line><line x1="0" y1="22.125" x2="281.1875" y2="22.125" fill="rgb(0, 0, 0)" stroke="rgb(60, 60, 60)" stroke-width="1px" opacity="0.25"></line><line x1="0" y1="0" x2="281.1875" y2="0" fill="rgb(0, 0, 0)" stroke="rgb(60, 60, 60)" stroke-width="1px" opacity="0.25"></line></g></g></g><g><g><line x1="0" y1="154.875" x2="281.1875" y2="154.875" fill="rgb(0, 0, 0)" stroke="rgb(153, 153, 153)" stroke-width="1.5px"></line></g></g><g><g><line x1="23.432291666666664" y1="0" x2="23.432291666666664" y2="177" fill="rgb(0, 0, 0)" stroke="rgb(153, 153, 153)" stroke-width="1.5px"></line></g></g><g><g><g><g><g><path stroke="rgb(0, 119, 187)" stroke-width="2px" d="M47.755010416666664,106.57978787273169L72.07772916666667,94.97735205824885L96.40044791666666,88.31705302865923L120.72316666666667,79.54809179753065L145.04588541666666,72.44997449227812L169.36860416666667,68.34810199909839L193.69132291666665,66.48853767826871L218.01404166666666,62.617807300966135L242.33676041666666,57.859345211401234L266.6594791666667,52.828965375722106" style="fill: none;" fill="none"></path></g><g><path stroke="rgb(255, 112, 67)" stroke-width="2px" d="M23.666614583333335,141.9782680431381L23.807208333333335,139.50440230366905L24.228989583333334,139.8185948445839L24.416447916666666,139.99370788375714L24.557041666666667,140.94178732062085L24.791364583333333,138.8857186635727L25.213145833333336,131.4377559833573L26.056708333333333,126.27774774942313L26.103572916666668,128.73953243859842L26.197302083333334,127.47727269722746L26.712812500000002,128.61914796720558L27.228322916666666,126.17826848574396L27.2751875,124.84415661443711L27.322052083333332,125.79023778421967L27.509510416666664,121.22372913164631L27.650104166666665,123.34225318288733L27.69696875,124.60379585745889L28.353072916666665,124.86426055219425L28.3999375,126.14188736459008L28.446802083333335,125.5413273251977L29.337229166666667,123.56980391242033L29.477822916666668,123.18422494299998L29.61841666666667,124.85415969857326L29.66528125,124.78283525984673L30.0870625,123.44599375681645L31.399270833333333,121.45260639099044L31.586729166666665,123.30073822489521L31.63359375,123.24863851936561L32.055375,123.94526320013136L32.102239583333336,123.55494724400697L32.24283333333333,118.92316577467201L32.47715625,120.72131899447817L32.52402083333333,116.68575729330735L33.50817708333334,115.11556044726002L33.69563541666667,117.04000306855727L33.7425,114.88090947292119L33.88309375,109.98043227674914L33.92995833333333,114.29222682335708L34.16428125,113.67110566619382L34.445468749999996,116.000669979148L34.492333333333335,118.07452098450679L34.539197916666666,118.60954051843632L34.77352083333333,113.51267687453668L34.91411458333333,118.767170937592L35.00784375,118.14195515243176L35.804541666666665,114.80138379630526L36.32005208333334,113.61031768153865L37.11675,105.1377013588653L37.351072916666666,102.86434725484973L37.44480208333333,105.85718905775879L37.49166666666667,108.83156418455191L37.58539583333333,107.53386669917691L38.05404166666667,110.2175059495103L38.14777083333333,112.84138893155114L38.803875000000005,113.683568942426L38.944468750000006,112.25487009126756L39.08506250000001,110.87524908085132L39.13192708333333,110.47820641400754L39.41311458333333,112.1622428673394L39.60057291666667,113.50802603579598L39.69430208333333,108.94812526798503L39.741166666666665,104.98618904655409L40.16294791666667,102.30882867291909L40.30354166666667,103.5252141757887L40.58472916666667,105.7930154826072L40.63159375,99.12174304519557L40.67845833333333,98.36342313894022L40.72532291666667,100.06749756253234L40.81905208333333,102.2299732738098L41.00651041666667,100.3269802892573L41.193968749999996,102.22974206777411L41.240833333333335,104.68880832366956L41.381427083333335,108.08306698887033L41.42829166666667,106.97366708091549L41.47515625,105.99565429717832L42.03753125,109.27421757017214L42.22498958333333,106.2580552089035L42.27185416666667,104.97666019832545L42.59990625,100.27147867381792L42.693635416666666,102.16959314700951L43.34973958333334,101.95601750187438L43.63092708333333,107.10600148280474L43.771520833333334,110.78648839917845L43.958979166666666,110.85003467669591L44.193302083333336,105.56392629260925L44.33389583333334,102.29975767662542L44.75567708333334,105.7437888997544L46.30220833333333,108.80577095826457L46.53653125,108.93220861520707L47.14577083333333,107.40385248895862L47.42695833333333,103.61223163555715L47.47382291666667,98.46747869326504L47.5206875,99.44272724501151L47.66128125,98.95934591972635L47.94246875,102.15555410392123L47.989333333333335,100.56380045083777L48.31738541666667,97.6671143819937L48.55170833333333,98.79653421603572L48.69230208333333,101.19343443168752L49.207812499999996,99.48202140222101L49.254677083333334,99.9246043243641L49.30154166666667,96.7781621313562L49.34840625,97.15841190490652L49.81705208333333,99.67355906012328L50.19196875,103.73419574028041L50.28569791666667,102.10769568291138L50.42629166666667,99.60281640594314L50.473156249999995,96.54327648732885L50.613749999999996,91.94823538030542L50.8949375,89.37263963382952L50.98866666666667,87.68978487708799L51.176125,90.77557827166196L51.64477083333333,95.15380601310343L51.78536458333333,95.55476404706845L51.87909375,89.09222109973584L52.066552083333335,83.67421151965968L52.207145833333335,81.59500854291106L52.86325,87.27999247575244L53.28503125,91.33629885755062L53.56621875,93.08946677254198L53.84740625,94.05049002138198L53.94113541666667,97.30400951182408L54.22232291666666,93.28132920880292L54.31605208333333,87.84776058546582L54.36291666666666,86.20795287379534L54.503510416666664,86.99138913258099L54.550375,82.55005925673382L54.644104166666665,86.95951747356456L54.73783333333333,89.50976079112738L54.831562500000004,82.89329272811449L54.87842708333333,86.98996709328024L55.25334375,90.58428767633535L55.3939375,92.16980725014282L55.72198958333333,88.99726117390448L55.81571875,86.7238991203759L56.050041666666665,90.51685429404333L56.237500000000004,93.67948487617191L56.56555208333333,98.26229819538158L56.89360416666667,93.73708641999932L58.2058125,91.62043579834678L58.346406249999994,84.92025215676409L58.627593749999996,85.57125711069243L58.86191666666667,86.45363492612346L58.955645833333335,90.92706545326338L59.049375,89.9052358335497L59.14310416666667,97.23738287230893L59.37742708333334,92.98293917693617L59.42429166666667,87.93012310987655L59.61175,92.71424946599411L59.84607291666667,88.10562240640228L60.40844791666666,88.75866761289466L60.4553125,85.67994609648308L60.59590625,90.92779184635222L60.83022916666666,87.79956761751875L60.87709375,90.87165425814172L61.345739583333334,92.90629227904215L61.5800625,90.16873321270744L61.626927083333335,87.16362387750893L61.81438541666667,82.79242221686505L61.90811458333334,83.57076987753257L62.1424375,81.60688985049686L62.18930208333334,86.8052508796376L62.23616666666666,90.29610587024108L62.37676041666666,86.91256206567151L62.84540625,87.8334866451849L63.22032291666667,92.39474087675136L63.2671875,91.78697097651452L63.50151041666667,91.432240786793L63.73583333333333,90.82726873840554L64.01702083333333,91.70029070329414L64.06388541666666,84.47045033687164L64.25134375,80.48624248440422L64.48566666666666,83.24267090026554L64.81371875,85.40198016288892L64.86058333333334,84.96368194276849L64.9543125,80.5312040776369L65.04804166666666,83.84251946995833L65.65728125,89.79611929163468L65.70414583333333,91.9231754497076L65.797875,88.37658459733315L66.21965625,92.89283903904548L67.01635416666667,88.04267809516037L67.06321874999999,91.98004498035344L67.2038125,86.77628179975325L67.29754166666667,86.63630283689479L67.485,88.36354260568305L67.57872916666668,81.1121868597305L69.07839583333333,81.89547966099056L69.21898958333334,77.13033289593662L69.4533125,76.64438682148013L69.87509375,74.69133625439669L70.06255208333333,75.54925933302837L70.5780625,79.66014444508698L70.67179166666668,80.46498319639673L70.81238541666667,75.48484490911596L71.46848958333332,75.59188122004592L71.79654166666667,79.6966523151869L71.84340625,79.77879357123928L72.03086458333333,84.25264789934873L72.21832291666668,79.95140789282262L72.31205208333333,82.04060705812229L72.45264583333334,79.0078962468464L72.78069791666667,78.58987360994212L72.8275625,82.40065370351219L72.87442708333333,75.1329280927788L72.92129166666668,82.2993627866738L73.01502083333332,83.41726559442529L73.29620833333333,82.27696846457009L73.34307291666666,78.78060527355733L73.62426041666666,79.9208713413124L73.81171875,79.09649088538025L74.28036458333334,83.8964381017263L74.37409375,80.3159050958585L74.42095833333333,76.21388133929902L74.51468750000001,75.51818042111944L76.43613541666666,75.8708515585404L76.52986458333334,75.73136818937519L77.13910416666666,79.66074948968038L77.37342708333334,75.4279942826297L77.42029166666666,76.30544905482724L77.51402083333333,70.03780337511743L77.56088541666666,69.61643337897395L77.60775000000001,73.29241391786884L77.79520833333333,68.24822172722929L77.98266666666666,62.46753639505589L78.17012500000001,71.5275635199717L78.21698958333333,72.20791796982076L78.49817708333333,69.66245891444225L78.91995833333334,70.58181731248153L79.38860416666667,77.36070008459876L79.66979166666667,77.98046864482157L79.71665625,73.15627225423151L80.1384375,76.42801801997642L80.37276041666667,77.30845309151871L80.65394791666667,77.52738295386483L80.88827083333334,75.05752170935459L81.21632291666667,82.08079674918342L81.49751041666667,81.40080168902047L81.59123958333333,77.91849326200163L81.68496875,76.30813872148748L81.87242708333333,81.84967858776568L81.96615625,75.37396462027071L82.01302083333334,75.21398635405183L82.20047916666667,71.68684993086666L82.24734375,74.07249820342966L82.34107291666666,74.27853544698138L82.38793749999999,79.08363017176075L82.52853125,77.50897944893305L82.57539583333335,73.29837287348408L82.76285416666667,74.60445704595666L82.90344791666666,75.51307622184171L83.04404166666667,67.98125771500034L83.2315,69.59434661133113L83.37209374999999,69.27024611356124L83.41895833333334,69.79765863733193L83.74701041666667,81.33179044829085L84.44997916666667,77.9489673085978L84.68430208333334,82.72918210424264L84.77803125,81.52361606804489L84.96548958333332,83.69959797708658L85.01235416666667,82.39530554785183L85.15294791666668,75.26769427488635L85.62159375,71.83328057848207L85.66845833333332,62.695373028686575L85.80905208333333,66.08379339998285L85.85591666666667,66.48093866613L86.043375,62.980931416574805L86.3245625,71.97374551588571L86.41829166666668,72.74465332809295L86.84007291666667,64.86150049703721L87.91795833333333,64.69681100575181L89.1364375,72.6669972205762L89.60508333333333,67.63236718547374L89.65194791666667,72.55531814450046L89.6988125,74.33685971613244L89.83940625,71.810365966078L89.93313541666667,71.10659315147726L90.07372916666668,66.33084823346681L90.12059375,62.50821880554068L90.21432291666667,60.17355964001199L91.19847916666666,59.104767610625785L91.76085416666666,60.237610809502286L91.9483125,61.4501161649803L92.18263541666666,63.440527925266295L92.32322916666666,68.14951099036148L92.69814583333333,65.94978557398923L92.74501041666666,71.04001985766745L92.791875,70.75859162232472L93.0730625,67.86416188084476L93.26052083333333,70.3726963881656L93.35425000000001,67.86120652474496L94.05721875,68.0263885879333L94.24467708333333,68.55176776638739L94.52586458333333,63.28652960986727L94.66645833333334,66.90584728629017L95.041375,65.75970495500138L95.13510416666666,65.86359216465033L95.18196875000001,59.32678876216319L95.22883333333334,64.07792131524613L95.65061458333334,66.07756788038706L95.74434375000001,70.89802611994368L95.79120833333333,66.40225068761127L95.83807291666666,66.2342498323561L96.02553125,67.05042221369156L96.25985416666667,66.56349964791394L96.58790625,59.768232433899186L97.24401041666667,58.839035817536654L97.33773958333333,58.428136267552475L97.38460416666666,59.76272368303664L97.66579166666666,62.131097120208494L97.75952083333334,61.21981346023304L98.27503125,56.09007685938644L98.46248958333334,62.25711586370443L98.50935416666667,65.35919611002784L99.21232291666666,63.66472086195485L99.30605208333334,64.33812140959749L99.35291666666667,64.62448634608279L99.44664583333333,70.24486225212877L99.49351041666667,68.35586676273692L99.63410416666666,65.57649247552416L99.72783333333334,57.62397021953359L99.86842708333334,56.4790165566213L99.91529166666666,51.044525931984694L100.33707291666667,51.890632316999515L100.43080208333333,59.42859270835882L100.61826041666667,58.61975904304509L100.66512499999999,61.57388000375573L100.85258333333334,62.28916856226731L101.04004166666667,68.33009913435137L101.08690625,76.1248420336884L101.32122916666667,70.70508445680451L101.74301041666666,67.75056873545283L101.97733333333333,71.69750044707384L102.58657291666667,70.57544564615134L102.77403125,68.58999696679743L103.10208333333333,63.728147509007414L104.03937499999999,63.061617461821996L104.92980208333333,61.64500542579708L105.07039583333332,58.56280895209771L105.30471875,61.232394105840186L105.4453125,65.39527365874383L105.77336458333333,66.85472675830971L106.24201041666667,71.14027627498545L106.288875,67.34890722066638L106.5700625,69.52185166128335L106.61692708333332,62.47616140729082L106.75752083333333,66.90712061476626L106.94497916666667,66.53524752111673L106.99184375,63.60163403974056L107.08557291666668,59.84747160729826L107.22616666666667,62.60545944055214L107.31989583333333,56.477382618042014L107.413625,63.7705125364305L107.74167708333333,65.7570476310433L107.92913541666667,67.9670077433423L108.30405208333333,65.75986625404921L108.44464583333333,65.95094698594339L108.538375,61.19605369997268L108.58523958333333,56.85269162902418L108.72583333333333,60.38163170664893L108.8195625,62.03862105644782L108.86642708333333,57.02893201885401L108.91329166666667,54.81755174046589L109.52253125,54.153647891028484L109.99117708333333,50.74538430671673L110.13177083333333,52.26193529256268L110.22550000000001,52.652917982176575L110.83473958333333,60.10106296541963L110.88160416666666,63.605792455022595L111.11592708333333,57.47042135681589L111.30338541666666,52.32483498592585L111.35025,55.89798084154285L111.86576041666666,59.42142494771299L111.95948958333334,59.45351549799305L112.05321875,57.903131077550796L112.24067708333334,54.99493391429108L112.47500000000001,60.598400101920376L112.52186458333334,53.94505335082145L112.61559375,58.561652762364815L112.70932291666666,62.30378340756259L112.84991666666666,67.61201747376741L113.41229166666666,66.94409169531627L113.64661458333333,69.84730486777995L113.78720833333334,65.93883228084128L114.02153125000001,59.567995893066225L114.20898958333333,55.87993315391623L114.49017708333334,54.73767956743302L114.81822916666667,59.19550038240598L115.05255208333334,54.58174258740429L115.38060416666667,59.19596115143361L115.47433333333333,52.97718253278181L115.80238541666667,58.05170860173884L116.22416666666666,60.0058467856242L116.50535416666666,58.99868678459478L116.59908333333334,59.2192976821881L116.83340625,60.371280182109885L116.88027083333334,71.57139325324938L117.63010416666667,71.78672555971329L117.91129166666667,65.87554963222281L118.33307291666667,66.703857697853L119.03604166666666,70.34394625783604L119.08290625,60.71137146994948L119.45782291666667,58.038582580875456L119.55155208333333,59.87938825979167L119.69214583333334,59.39809659081945L119.73901041666667,55.36981981216556L119.83273958333334,55.70936298719562L120.06706249999999,55.805862349283075L120.72316666666667,50.65357743726027L120.86376041666666,52.535764640389786L121.00435416666667,51.846943442388536L121.1918125,56.678564002263656L121.37927083333332,51.353953413775656L121.51986458333333,52.302668172948884L121.61359374999999,51.641196339453245L122.08223958333333,58.17048901813102L122.26969791666667,60.21834757549222L122.36342708333333,59.53329369517161L122.59775,50.99615541169041L123.30071875,52.98253587871038L123.48817708333333,55.01850741348596L123.76936458333333,53.82724978582512L123.90995833333334,50.29907371145822L124.05055208333333,48.881160395535346L124.19114583333332,51.67255513347129L124.61292708333333,42.96177242679104L124.94097916666668,40.170570541044356L125.03470833333333,46.82825752617438L125.31589583333333,45.754102837454695L125.36276041666667,48.99931782402945L125.409625,44.60937749533619L125.59708333333333,44.97463799781178L125.6908125,46.50299584132861L126.06572916666666,50.310985352936626L126.11259375,57.72583985987545L126.20632291666666,54.40890798839361L126.25318750000001,49.297329566422306L126.30005208333333,46.85488705824554L126.34691666666666,54.919773776015205L126.8155625,55.37881290441793L127.14361458333333,55.83188111168178L127.23734375000001,57.15110016489052L127.3779375,58.799788634285505L127.56539583333333,54.59349747024861L127.75285416666667,53.309083722702326L127.9403125,54.75283019443725L128.783875,61.46791771948617L129.20565625,56.28344116285652L129.72116666666668,60.54065197650499L129.76803125,54.89779292377759L129.908625,56.99093912603652L129.95548958333333,53.889126996041824L130.09608333333333,56.48926392558327L130.23667708333335,56.4781323456251L130.28354166666665,53.22235002990688L130.61159375,50.305432609290804L130.79905208333332,51.61532084760884L130.89278125,51.18676058290764L131.54888541666665,51.00779205812786L131.59575,49.71369458365271L131.78320833333333,44.01368667653077L131.92380208333333,46.615305503613286L132.34558333333334,53.05193241343389L132.4393125,55.61451395530618L132.95482291666667,50.11831414833006L133.282875,54.84866807709885L133.84525,57.4369353864398L133.98584375,56.840985774159904L134.07957291666668,54.2173627813611L135.86042708333335,53.075489729639386L136.56339583333335,54.43991734832265L136.70398958333334,57.86485004424853L136.75085416666667,60.453128099440065L137.12577083333335,57.20237897895166L137.31322916666667,56.07322871172718L137.54755208333333,57.796407448010825L137.82873958333332,63.131520416034164L137.87560416666668,58.6722072032786L138.43797916666668,58.78711740804438L139.04721874999998,62.53871897520665L139.09408333333332,58.013801682085116L139.1878125,62.68233512013428L139.42213541666666,61.57472560308334L139.469,65.2875503376272L139.56272916666668,61.38004093990823L140.031375,62.95831196476594L140.07823958333333,59.58709428250472L140.92180208333332,59.226229222787026L140.96866666666665,55.31987301422102L141.20298958333333,53.311373352355815L141.62477083333334,56.69475582938422L141.76536458333334,56.35771002583972L142.23401041666668,57.26514127823165L142.32773958333334,61.88289725573698L142.42146874999997,62.519645717306716L142.51519791666666,62.19905338180348L142.70265625,68.11145786190247L142.79638541666668,65.93686470571319L142.84325,65.48470677944393L143.03070833333334,61.61271066786624L143.07757291666667,58.00610848569703L143.17130208333333,51.353327030717054L143.31189583333335,54.81446691213452L143.78054166666666,52.036839491564066L144.10859374999998,53.967340226425236L144.34291666666667,47.56336016241724L144.67096875,43.83786865535387L144.76469791666668,48.00371666038785L144.85842708333334,50.14951393220392L144.95215625,51.74274507882866L144.99902083333336,52.59216510484124L145.23334375,49.67354792527486L145.56139583333334,49.82134240993952L145.9363125,49.981870635443144L146.12377083333334,46.513727880338735L146.49868750000002,52.43125101500742L147.34225,52.84816341716045L147.6234375,48.483562995627466L148.23267708333333,46.68963459479431L148.32640625,46.976959171500965L148.42013541666668,51.13719983779427L148.70132291666667,48.51846337231274L149.12310416666665,43.851089838238636L149.40429166666667,42.92439583546823L149.45115625,46.312039379826956L149.5448854166667,44.79049261253459L150.06039583333333,49.09263128855363L150.48217708333334,44.468896246094516L150.57590625,51.537960882215955L150.6696354166667,56.53336199017558L150.90395833333332,57.98992501863982L150.95082291666668,49.18956187120932L151.13828125,43.72169921362297L151.278875,51.71734384681204L151.37260416666666,52.74489821296497L151.65379166666668,58.956714820500935L151.7475208333333,54.666535844383176L151.79438541666667,46.87046894801969L152.02870833333333,45.727831891725316L152.35676041666665,49.21070790406306L152.73167708333335,50.31506399338127L153.57523958333334,51.69191902335494L153.66896875,48.77943062376983L153.95015625,53.73557315835362L154.09075,46.85980176604542L154.18447916666668,47.22004794833626L154.32507291666664,53.317723579761136L154.41880208333333,58.2787974682128L154.46566666666666,52.95728442122605L154.65312500000002,59.680757051706806L154.88744791666664,56.49239086434281L155.02804166666667,59.018319989182345L155.21550000000002,58.982091354159834L155.35609374999999,57.46278079549097L155.4966875,51.733733290431076L155.63728125,43.65388775914698L155.82473958333335,47.40012883990843L156.0590625,42.37769906110941L156.29338541666667,47.31725281393065L156.43397916666666,48.36022667151343L156.6214375,46.36631764889992L156.94948958333333,45.713987603196784L156.99635416666666,50.36086338714456L157.04321875,51.950144983497964L157.23067708333335,51.02032694195785L157.41813541666664,56.85152150858251L157.465,56.92571253455287L157.51186458333333,51.51062534657571L157.65245833333333,50.74758315389941L157.69932291666666,51.43508129980853L157.98051041666665,43.031787087520144L158.16796875,45.27768780104827L158.21483333333333,42.692201233003374L158.3085625,47.48830450221439L158.63661458333334,47.488013980124435L158.68347916666667,51.44754083814773L158.91780208333336,52.35494678178841L158.96466666666666,60.63959453038434L159.01153125,58.25301715755508L159.10526041666665,54.262840748012394L159.33958333333334,53.03368420167291L159.62077083333332,51.31245315457525L160.32373958333335,46.55052808214086L162.29205208333335,48.58526218338949L162.47951041666667,53.032066603408325L162.62010416666666,54.94505001411292L162.71383333333333,46.996075338165866L162.90129166666668,42.31142780634826L163.08874999999998,41.02955536881885L163.18247916666667,41.06773926198335L163.97917708333335,39.71631230324394L164.07290625000002,47.59978839129124L164.11977083333332,47.78616489373084L164.54155208333333,45.64905138613608L164.63528125000002,44.399579355879325L165.52570833333334,40.297214835706114L165.900625,31.971380140500344L166.463,32.37158608519812L166.55672916666668,40.7786215140207L166.7910520833333,46.06851450307545L166.83791666666667,46.239129641677266L166.88478125,38.415658007581015L166.97851041666667,45.11531316900175L167.49402083333334,47.22728904086293L167.63461458333333,51.89518747477189L168.05639583333334,51.118753189209514L168.19698958333333,49.14781048473969L168.57190625,50.872178063372175L168.66563541666667,48.37958490146653L168.7593645833333,53.923157584245914L168.89995833333333,54.2842138216465L168.94682291666666,48.461581916031946L169.36860416666667,50.170202533094354L169.5560625,50.34523277706525L170.07157291666667,49.130818817590324L170.25903125000002,47.00471668211716L170.35276041666665,49.02669590725077L171.10259375,47.41882918785194L171.71183333333335,53.62054640993611L172.08675,45.767362907120116L172.18047916666666,47.49855575493612L172.50853125,46.284474160757924L172.55539583333334,42.43035129195994L172.83658333333335,46.01732931089805L173.2115,43.53758217805927L173.68014583333334,45.789651193948885L173.72701041666667,40.03384081924878L174.75803125000002,43.1011232037464L174.85176041666668,44.40499528490895L175.13294791666667,36.88966667460943L175.27354166666666,34.48643549760837L175.36727083333335,34.15431265146029L175.88278125,34.693237935084795L176.53888541666666,36.37434393508633L176.8669375,38.60781459207385L176.96066666666667,40.26637547981031L177.28871875,32.22310177811451L177.56990624999997,34.91259376204363L177.61677083333333,37.14615964141748L177.80422916666666,39.27506907282222L177.85109375,37.28741574658417L178.03855208333334,39.348157723422815L178.08541666666665,41.68009142553507L178.272875,36.80907425638807L178.50719791666668,42.94277018574459L178.60092708333332,51.135026298594326L178.92897916666666,45.85446919696918L178.97584375,36.45334561688742L179.02270833333336,39.15526153350652L179.397625,39.426581954246615L179.53821875,43.16259222498971L179.72567708333332,47.971997145723094L179.81940625,41.50064602040558L180.05372916666667,44.044130681405306L180.70983333333334,41.380668504871295L181.08475,38.98457445862695L181.27220833333334,38.961711035391744L181.60026041666669,41.24318745264489L181.69398958333332,44.17014525293618L181.8345833333333,40.410850342059945L181.88144791666667,34.92725460301702L181.9283125,38.242571220329864L182.20950000000002,41.05692534747084L182.25636458333332,46.60207096563548L182.7250104166667,46.32929283065178L183.0530625,53.64605572955739L183.28738541666667,46.98429825258947L183.33425,45.044582008217986L183.56857291666668,44.81636017851176L183.896625,45.095387976930624L184.08408333333333,45.786600320835475L184.27154166666665,42.067067339494486L184.31840624999998,41.102472524698584L185.06823958333334,36.88838345248698L185.16196875,37.74798500120042L185.53688541666668,39.731164172883325L185.67747916666667,45.32547764897012L186.146125,48.60588459424423L186.19298958333334,42.419812021793774L186.47417708333333,46.15785048204796L186.66163541666668,38.37136437593506L187.08341666666666,41.82815126961921L187.13028125,42.86543739688736L187.36460416666668,43.323843470605766L187.5520625,45.03844701788765L187.59892708333334,39.586972572221896L187.64579166666667,33.9103147669245L187.92697916666665,40.23876801197298L188.20816666666667,49.58287847090189L188.44248958333333,51.077038407686544L188.53621875,51.53161897909878L189.2391875,46.17608314866004L189.9890208333333,47.23004719886316L190.03588541666664,49.91932970302652L190.08275,46.98865265039615L190.36393750000002,55.123423897758215L190.50453124999999,52.23979523296289L190.55139583333332,54.28478686336524L190.73885416666667,48.35193870085362L190.78571875,51.13769897161339L191.06690625,49.62652740507136L191.72301041666665,45.040838615065894L191.95733333333334,44.793695513878816L192.0510625,43.33220421483708L192.42597916666668,43.28156655811213L192.51970833333334,44.786222441367386L192.66030208333333,48.84506047582033L192.98835416666668,51.05194254268261L193.03521875,50.1748234931309L193.457,41.8465774322807L193.78505208333334,44.20471399391141L194.20683333333332,40.42423555898998L195.05039583333334,36.939888824882615L195.14412499999997,41.313107285546124L195.33158333333333,43.714893336331016L195.61277083333334,45.527160389524056L195.9876875,39.930360193030054L196.31573958333334,34.50967949627042L196.73752083333332,40.505172846825445L196.92497916666667,39.3661573142644L197.29989583333332,41.00133822939068L197.956,32.46604230315441L198.65896875,36.6257359445911L198.84642708333334,34.27977049431365L198.89329166666667,30.70929938987763L199.08075,29.154581635712617L199.22134375000002,31.87897277587578L199.26820833333332,38.813439365207614L199.36193749999998,35.5278201892819L199.45566666666667,36.72164135387882L199.87744791666665,43.0630753596227L200.01804166666668,43.16670484912402L200.06490625,40.23690578395133L200.4866875,35.71874943043298L200.62728125,34.27179120604325L200.8147395833333,35.02449189218976L201.14279166666668,38.44902290473206L201.18965625,39.789457932634804L201.23652083333334,36.615168750676276L201.42397916666667,36.96079847245866L201.47084375,37.39990853167666L201.65830208333333,30.809583767481826L201.70516666666668,32.92854366021467L201.79889583333335,28.217511257656753L202.2675416666667,36.33521982738995L202.64245833333334,35.33724590919633L203.06423958333332,30.519519733505092L203.15796875,33.52179121011244L203.48602083333333,36.4753778989147L203.72034375,36.48936514295869L203.76720833333334,34.24371686009863L204.09526041666666,36.12129999271258L204.42331249999998,37.37856597878951L204.4701770833333,39.64754939771012L204.51704166666667,39.16151074093813L204.56390625,39.93934144096252L204.65763541666666,38.785765417044416L204.98568749999998,38.750886624772136L205.36060416666666,42.25386818179399L205.68865625,44.427440210647205L205.92297916666666,44.03486019333218L206.1104375,38.014084171205866L206.15730208333332,35.9807212508843L206.48535416666664,39.42328412697654L206.6728125,40.64881301757649L207.93815625000002,41.02790570137617L208.50053125000002,37.09144489376038L208.68798958333332,37.79209719902491L208.87544791666667,43.323655996890494L208.9223125,33.73242630375299L209.25036458333332,39.74372328119628L209.4846875,43.72792420385147L209.95333333333335,43.677246522887515L210.56257291666668,42.29898323266505L210.84376041666667,43.42203503026664L210.98435416666666,44.97806914094164L211.82791666666665,47.68053670185117L211.96851041666667,40.04379788754363L212.10910416666667,37.02027708826944L212.53088541666668,36.86014517425363L212.81207291666666,44.105033168784246L213.18698958333334,34.069491848045175L213.46817708333333,30.85599810607252L213.65563541666668,36.33757458423838L213.70250000000001,36.886199096555L213.74936458333332,40.82497836255615L213.9836875,37.74328306021977L214.40546874999998,42.4960624292693L214.63979166666667,45.56010610164711L214.92097916666665,47.12632668056716L215.06157291666668,39.92271347372707L215.389625,46.02779461651278L215.6708125,43.26071902892912L215.71767708333334,40.368708750470915L215.90513541666667,37.58489850227866L216.04572916666666,33.55155079860117L216.60810416666666,34.56113882585336L216.65496875,33.019826197802786L216.74869791666669,36.87724356105906L217.07675,36.211670378230366L217.3110729166667,38.129385169135276L217.49853124999998,31.21561437158789L217.639125,35.52588973424588L217.73285416666667,35.290319342030244L217.77971875,40.59549073957888L218.4826875,36.282267843063835L218.67014583333332,33.70978655992161L218.71701041666668,31.84395980893234L219.37311458333335,32.06344448446228L219.5137083333333,25.895248960100076L219.6074375,16.14492030489629L219.65430208333333,14.778492674590524L219.74803125,13.859102938593452L220.49786458333332,20.219068936274226L220.82591666666667,23.663818889681835L221.81007291666668,23.348311103004477L222.18498958333333,29.259895227192516L222.3724479166667,33.42710954274139L222.46617708333335,33.719728893230865L222.65363541666665,39.8882865933258L222.79422916666667,42.898835456198356L222.93482291666666,43.210047130156994L223.02855208333335,34.247535693920724L223.07541666666665,28.057768857685545L223.16914583333332,32.38625612199891L223.262875,37.28517209060928L223.35660416666667,36.64428957229808L223.54406250000002,34.40726659391785L223.73152083333332,36.24620746966053L223.77838541666665,37.24296823066362L223.96584375,37.92109328077649L224.05957291666664,34.65049770523916L224.20016666666666,27.925504189355763L224.6688125,25.465627611893098L225.18432291666664,27.691640731854505L225.41864583333333,25.430354093881903L226.12161458333335,23.22020411519145L226.26220833333332,21.808367584108822L226.87144791666665,27.76761711497568L227.1995,29.47272592678266L227.34009375,37.9897200122073L227.57441666666668,40.472500168129415L227.62128125,35.496390631679134L227.85560416666667,33.20467003128189L228.98035416666667,29.4231359581743L229.54272916666667,37.267862420200885L229.96451041666666,36.46900182285873L230.29256249999997,36.35384523361151L230.66747916666668,36.870820369491184L230.71434375,33.885468975580636L230.76120833333334,33.20813564276463L231.04239583333333,35.840273900447556L231.51104166666667,38.69657044382265L231.60477083333333,42.39811414496131L231.7922291666667,42.98239932407458L232.12028125,43.80117393619955L232.5420625,40.84159974446251L232.58892708333335,41.950066994431296L232.63579166666668,41.26147409588296L232.87011458333336,39.48777339466065L233.05757291666666,43.00162954336142L233.6668125,40.99570096809967L233.76054166666668,36.33683418690637L233.80740625,28.69458024546111L233.85427083333335,31.982321298454735L233.90113541666665,32.86479295517097L234.08859375,40.65311081502654L235.07274999999998,39.731514683319745L235.30707291666667,30.477260251308707L235.3539375,31.048593993831588L235.40080208333333,33.576037686950656L235.4476666666667,36.1453151977708L235.86944791666667,32.06279280607774L235.9163125,36.12348305117246L236.29122916666668,34.487871847533825L236.90046875000002,31.645114352541896L237.0879270833333,28.425879638819197L237.22852083333333,25.14449234785758L237.32225,27.551456276194187L237.4159791666667,26.413767035019333L237.50970833333335,28.426927928039362L237.60343749999998,26.62223880284199L237.83776041666667,31.632645313018344L238.40013541666667,27.066276683713312L238.68132291666666,24.091811421741028L238.91564583333334,23.645126170090577L239.19683333333333,25.927154016622723L239.24369791666666,33.0561953333235L239.33742708333332,36.49337780827403L239.43115625000002,36.302863030538845L239.47802083333335,36.61413561843773L239.6186145833333,35.58069065245198L240.18098958333331,36.511799365521995L240.36844791666667,33.62730052712675L240.55590625000002,30.445120652341217L240.74336458333332,31.85223413990687L240.83709375,35.05535100204315L240.88395833333334,35.19632932024126L241.21201041666666,31.43894167599771L241.5400625,36.17637511609266L241.58692708333334,36.33695540963316L242.1493020833333,35.41519350661861L243.08659375000002,25.223168342218003L243.18032291666668,25.408795639056876L243.22718749999999,26.952240540965562L243.27405208333332,21.7680509644629L243.36778125,22.620445833197323L243.508375,23.613738086515013L243.93015625,21.697348804543424L244.11761458333334,23.762235593996934L244.21134375000003,30.76873868681676L244.30507291666666,27.028474274856478L244.44566666666665,27.9230236624052L245.14863541666668,21.564146054116605L245.1955,13.015702875202692L245.38295833333333,14.858163816292432L245.71101041666668,21.363311266570804L246.83576041666666,30.7248268020671L247.58559375,33.37701796312044L248.61661458333333,32.15899417041922L248.99153124999998,31.616339275532823L249.17898958333333,30.62221629492481L249.27271875,33.59644317308096L249.31958333333336,29.683954135917304L249.50704166666665,30.0089903185835L249.60077083333334,23.640775167202207L249.9756875,22.499445895295793L250.21001041666668,27.758360452906373L250.44433333333336,25.50147744451172L250.63179166666666,22.854090935991735L251.33476041666668,23.473608674113876L251.381625,31.6002499993927L251.61594791666667,30.61491662906758L251.80340625,29.25434226652348L252.08459374999998,21.313888232114635L252.17832291666667,23.711649708600874L252.31891666666667,24.96270160574616L252.4595104166667,25.503986602268384L252.74069791666668,26.910204541118247L253.06875,26.455308188819373L253.25620833333332,30.30255075530968L253.44366666666667,32.07569714439481L253.631125,35.73166043164261L253.67798958333333,28.81486839877016L253.81858333333332,30.63290117551719L254.38095833333333,24.768684725238643L254.42782291666668,25.204552415962326L255.03706250000002,28.404784678634513L255.08392708333335,26.128279130322113L255.22452083333332,25.058071852223833L255.31825,31.774372654405795L255.36511458333334,33.63041217047541L255.45884375,29.651725559819994L255.5525729166667,29.464201669684996L255.880625,27.563360091888853L256.1618125,25.558585443976483L256.2086770833333,24.89314107513647L257.14596875,27.663427233071758L257.23969791666667,30.436678435185286L257.33342708333333,23.460922923519263L257.4740208333333,17.31024222212585L257.52088541666666,19.202510510664837L257.89580208333336,27.150904474617278L258.27071875,28.96380761486381L258.4113125,20.58984333814749L259.1611458333333,24.880525268924004L259.95784375,24.149798607685966L260.23903125,27.798634835227432L260.33276041666664,27.681286504972064L260.42648958333336,27.402540747901867L260.61394791666663,32.13091321444591L260.6608125,29.54320034873544L260.84827083333334,28.10778813430713L261.2700520833333,35.11035019806806L261.4106458333333,42.14090821818846L261.73869791666664,36.39418520909797L262.1604791666667,38.6754077440668L262.20734375,42.85362864778705L262.3479375,37.08638242443104L262.76971875,38.26242493510023L263.0040416666667,38.23783736988733L263.33209375,35.25975942659997L263.4258229166667,36.65675700492133L263.56641666666667,30.594449652630573L263.9413333333333,28.66503456488141L264.17565625,21.90641625042923L264.5974375,27.019437117995068L264.6911666666667,33.40558055685551L264.78489583333334,36.03619534258985L264.83176041666667,38.38247720699715L264.92548958333333,40.43359834925241L265.2066770833333,35.64989449438383L265.30040625,34.681598081118835L265.39413541666664,33.91253608757776L265.441,29.038089173246334L265.5347291666667,28.95053522080846L265.8159166666667,34.97690090753636L265.86278125,34.04182909218969L266.51888541666665,39.66684764652328L266.61261458333337,32.8049678320354" style="fill: none;" fill="none"></path></g></g></g></g><g opacity="0.2"><g><g><g><path stroke="rgb(0, 119, 187)" stroke-width="2px" d="M47.755010416666664,106.57978787273169L72.07772916666667,86.27552519738674L96.40044791666666,79.57541055232286L120.72316666666667,64.339424662292L145.04588541666666,57.89328861236572L169.36860416666667,58.96266523003578L193.69132291666665,61.90273220837116L218.01404166666666,52.5556565746665L242.33676041666666,45.01310947537422L266.6594791666667,38.87093934416771" style="fill: none;" fill="none"></path></g><g><path stroke="rgb(255, 112, 67)" stroke-width="2px" d="M23.666614583333335,141.9782680431381L23.807208333333335,137.6490029990673L24.228989583333334,140.23097255453467L24.416447916666666,140.29741956107318L24.557041666666667,142.88609085325152L24.791364583333333,134.18125688284636L25.213145833333336,113.07059996947646L26.056708333333333,112.8640569113195L26.103572916666668,135.38551718182862L26.197302083333334,123.9748226031661L26.712812500000002,131.85186474770308L27.228322916666666,119.16490267217159L27.2751875,120.96860039234161L27.322052083333332,128.5610523931682L27.509510416666664,107.76830061525106L27.650104166666665,129.61289289593697L27.69696875,128.35049208439887L28.353072916666665,125.63978093862534L28.3999375,129.95315913297236L28.446802083333335,123.74726521968842L29.337229166666667,117.67399002984166L29.477822916666668,122.03023922815919L29.61841666666667,129.85502744279802L29.66528125,124.56914820894599L30.0870625,119.43949337303638L31.399270833333333,115.47694462537766L31.586729166666665,128.84200442768633L31.63359375,123.09240556508303L32.055375,126.03447375074029L32.102239583333336,122.3842781893909L32.24283333333333,105.03030282631516L32.47715625,126.11505613848567L32.52402083333333,104.58028833568096L33.50817708333334,110.40532480180264L33.69563541666667,122.8130047135055L33.7425,108.40390318259597L33.88309375,95.27946795523167L33.92995833333333,127.22730211168528L34.16428125,111.8077755086124L34.445468749999996,122.98926920816302L34.492333333333335,124.29601143300533L34.539197916666666,120.2145870141685L34.77352083333333,98.22217243909836L34.91411458333333,134.53058624826372L35.00784375,116.26631376519799L35.804541666666665,104.77969364449382L36.32005208333334,110.0371257327497L37.11675,79.71988651156425L37.351072916666666,96.04429180920124L37.44480208333333,114.83570768684149L37.49166666666667,117.75468451157212L37.58539583333333,103.64077589660883L38.05404166666667,118.2684211358428L38.14777083333333,120.71303599700332L38.803875000000005,116.21010852232575L38.944468750000006,107.9687741138041L39.08506250000001,106.73638646677136L39.13192708333333,109.2870785035193L39.41311458333333,117.21435194090009L39.60057291666667,117.5453753694892L39.69430208333333,95.2684234008193L39.741166666666665,93.10038066655397L40.16294791666667,94.27674769610167L40.30354166666667,107.17437063530087L40.58472916666667,112.59641933441162L40.63159375,79.10792588442564L40.67845833333333,96.08846343308687L40.72532291666667,105.17972081154585L40.81905208333333,108.71740038692951L41.00651041666667,94.61800134927034L41.193968749999996,107.93802739307284L41.240833333333335,112.06600708141923L41.381427083333335,118.26584297418594L41.42829166666667,103.64546735957265L41.47515625,103.06161594763398L42.03753125,119.10990738496184L42.22498958333333,97.20956812798977L42.27185416666667,101.1324751675129L42.59990625,86.15593410283327L42.693635416666666,107.8639365658164L43.34973958333334,101.3152905665338L43.63092708333333,122.55595342442393L43.771520833333334,121.82794914767146L43.958979166666666,111.04067350924015L44.193302083333336,89.70560114085674L44.33389583333334,92.50725182890892L44.75567708333334,116.07588256895542L46.30220833333333,117.99171713367105L46.53653125,109.31152158603072L47.14577083333333,102.81878411024809L47.42695833333333,92.23736907541752L47.47382291666667,83.0332198664546L47.5206875,102.36847290024161L47.66128125,97.50920194387436L47.94246875,111.74417865648866L47.989333333333335,95.78853949159384L48.31738541666667,88.97705617547035L48.55170833333333,102.1847937181592L48.69230208333333,108.38413507863879L49.207812499999996,94.3477823138237L49.254677083333334,101.2523530907929L49.30154166666667,87.33883555233479L49.34840625,98.29916122555733L49.81705208333333,107.21900052577257L50.19196875,115.91610578075051L50.28569791666667,97.22819551080465L50.42629166666667,92.08817857503891L50.473156249999995,87.36465673148632L50.613749999999996,78.16311205923557L50.8949375,81.64585239440203L50.98866666666667,82.6412206068635L51.176125,100.03295845538378L51.64477083333333,108.28848923742771L51.78536458333333,96.75763814896345L51.87909375,69.70459225773811L52.066552083333335,67.42018277943134L52.207145833333335,75.35739961266518L52.86325,104.3349442742765L53.28503125,103.50521800294518L53.56621875,98.34897051751614L53.84740625,96.9335597679019L53.94113541666667,107.06456798315048L54.22232291666666,81.21328829973936L54.31605208333333,71.54705471545458L54.36291666666666,81.28852973878384L54.503510416666664,89.34169790893793L54.550375,69.22606962919235L54.644104166666665,100.18789212405682L54.73783333333333,97.1604907438159L54.831562500000004,63.04388853907585L54.87842708333333,99.27999018877745L55.25334375,101.36724942550063L55.3939375,96.92636597156525L55.72198958333333,79.47962294518948L55.81571875,79.90381295979023L56.050041666666665,101.8957198150456L56.237500000000004,103.16737662255764L56.56555208333333,112.0107381530106L56.89360416666667,80.16145109385252L58.2058125,85.27048393338919L58.346406249999994,64.81970123201609L58.627593749999996,87.52427197247744L58.86191666666667,89.1007683724165L58.955645833333335,104.34735703468323L59.049375,86.83974697440863L59.14310416666667,119.23382398858666L59.37742708333334,80.21960809081793L59.42429166666667,72.7716749086976L59.61175,107.06662853434682L59.84607291666667,74.2797412276268L60.40844791666666,90.7178032323718L60.4553125,76.44378154724836L60.59590625,106.67132909595966L60.83022916666666,78.41489493101835L60.87709375,100.08791418001056L61.345739583333334,99.01020634174347L61.5800625,81.95605601370335L61.626927083333335,78.14829587191343L61.81438541666667,69.67881723493338L61.90811458333334,85.90581285953522L62.1424375,75.71524976938963L62.18930208333334,102.40033396705985L62.23616666666666,100.7686708420515L62.37676041666666,76.76193065196276L62.84540625,90.59626038372517L63.22032291666667,106.07850357145071L63.2671875,89.96366127580404L63.50151041666667,90.36805021762848L63.73583333333333,89.01235259324312L64.01702083333333,94.31935659796L64.06388541666666,62.78092923760414L64.25134375,68.53361892700195L64.48566666666666,91.51195614784956L64.81371875,91.87990795075893L64.86058333333334,83.64878728240728L64.9543125,67.23377048224211L65.04804166666666,93.77646564692259L65.65728125,107.6569187566638L65.70414583333333,98.30434392392635L65.797875,77.73681204020977L66.21965625,106.44160236418247L67.01635416666667,73.49219526350498L67.06321874999999,103.79214563593268L67.2038125,71.16499225795269L67.29754166666667,86.21636594831944L67.485,93.54526191204786L67.57872916666668,59.3581196218729L69.07839583333333,84.2453580647707L69.21898958333334,62.834892600774765L69.4533125,75.18654859811068L69.87509375,68.83218455314636L70.06255208333333,78.12302856892347L70.5780625,91.99279978126287L70.67179166666668,82.87949945032597L70.81238541666667,60.544430047273636L71.46848958333332,75.91299015283585L71.79654166666667,92.01096560060978L71.84340625,80.02521733939648L72.03086458333333,97.674210883677L72.21832291666668,67.04768787324429L72.31205208333333,88.30820455402136L72.45264583333334,69.9097638130188L72.78069791666667,77.33580569922924L72.8275625,93.83299398422241L72.87442708333333,53.32975126057863L72.92129166666668,103.79866686835885L73.01502083333332,86.77097401767969L73.29620833333333,78.85607707500458L73.34307291666666,68.29151570051908L73.62426041666666,83.3416695445776L73.81171875,76.62334951758385L74.28036458333334,98.29627975076437L74.37409375,69.57430607825518L74.42095833333333,63.90781006962061L74.51468750000001,73.43107766658068L76.43613541666666,76.92886497080326L76.52986458333334,75.31291808187962L77.13910416666666,91.44889339059591L77.37342708333334,62.729728661477566L77.42029166666666,78.9378133714199L77.51402083333333,51.234866335988045L77.56088541666666,68.35232339054346L77.60775000000001,84.32035553455353L77.79520833333333,53.11564515531063L77.98266666666666,45.12548039853573L78.17012500000001,98.70764489471912L78.21698958333333,74.24898131936789L78.49817708333333,62.02608174830675L78.91995833333334,73.33989250659943L79.38860416666667,97.69734840095043L79.66979166666667,79.83977432549L79.71665625,58.68368308246136L80.1384375,86.24325531721115L80.37276041666667,79.94975830614567L80.65394791666667,78.18417254090309L80.88827083333334,67.64793797582388L81.21632291666667,103.15062186866999L81.49751041666667,79.36081650853157L81.59123958333333,67.47156798094511L81.68496875,71.47707509994507L81.87242708333333,98.47429818660021L81.96615625,55.946822717785835L82.01302083333334,74.73405155539513L82.20047916666667,61.10544066131115L82.24734375,81.22944302111864L82.34107291666666,74.89664717763662L82.38793749999999,93.4989143460989L82.52853125,72.78502728044987L82.57539583333335,60.666553147137165L82.76285416666667,78.52270956337452L82.90344791666666,78.23893374949694L83.04404166666667,45.38580219447613L83.2315,74.43361330032349L83.37209374999999,68.29794462025166L83.41895833333334,71.37989620864391L83.74701041666667,115.93418588116765L84.44997916666667,67.80049788951874L84.68430208333334,97.06982649117708L84.77803125,77.90691795945168L84.96548958333332,90.22754370421171L85.01235416666667,78.48242826014757L85.15294791666668,53.88486045598984L85.62159375,61.53003948926926L85.66845833333332,35.28165037930012L85.80905208333333,76.24905451387167L85.85591666666667,67.67237446457148L86.043375,52.480909667909145L86.3245625,98.95218781381845L86.41829166666668,75.05737676471472L86.84007291666667,41.21204200387001L87.91795833333333,64.20274253189564L89.1364375,96.57755586504936L89.60508333333333,52.52847708016634L89.65194791666667,87.3241710215807L89.6988125,79.68148443102837L89.83940625,64.23088471591473L89.93313541666667,68.99527470767498L90.07372916666668,52.003613479435444L90.12059375,51.04033052176237L90.21432291666667,53.16958214342594L91.19847916666666,55.898391522467136L91.76085416666666,63.636140406131744L91.9483125,65.08763223141432L92.18263541666666,69.4117632061243L92.32322916666666,82.27646018564701L92.69814583333333,59.350609324872494L92.74501041666666,86.31072270870209L92.791875,69.91430691629648L93.0730625,59.18087265640497L93.26052083333333,77.89829991012812L93.35425000000001,60.32673693448305L94.05721875,68.52193477749825L94.24467708333333,70.1279053017497L94.52586458333333,47.49081514030695L94.66645833333334,77.76380031555891L95.041375,62.32127796113491L95.13510416666666,66.17525379359722L95.18196875000001,39.716378554701805L95.22883333333334,78.33131897449493L95.65061458333334,72.07650757580996L95.74434375000001,85.35940083861351L95.79120833333333,52.91492439061403L95.83807291666666,65.7302472665906L96.02553125,69.49893935769796L96.25985416666667,65.10273195058107L96.58790625,39.38243079185486L97.24401041666667,56.051445968449116L97.33773958333333,57.195437617599964L97.38460416666666,63.766485929489136L97.66579166666666,69.23621743172407L97.75952083333334,58.485962480306625L98.27503125,40.70086705684662L98.46248958333334,80.75823287665844L98.50935416666667,74.66543684899807L99.21232291666666,58.58129511773586L99.30605208333334,66.35832305252552L99.35291666666667,65.48358115553856L99.44664583333333,87.10598997026682L99.49351041666667,62.688880294561386L99.63410416666666,57.23836961388588L99.72783333333334,33.76640345156193L99.86842708333334,53.044155567884445L99.91529166666666,34.74105405807495L100.33707291666667,54.42895147204399L100.43080208333333,82.04247388243675L100.61826041666667,56.19325804710388L100.66512499999999,70.43624288588762L100.85258333333334,64.43503423780203L101.04004166666667,86.45289085060358L101.08690625,99.50907073169947L101.32122916666667,54.4458117261529L101.74301041666666,58.88702157139778L101.97733333333333,83.53829558193684L102.58657291666667,67.20928124338388L102.77403125,62.63365092873573L103.10208333333333,49.14259913563728L104.03937499999999,61.06202732026577L104.92980208333333,57.39516931772232L105.07039583333332,49.31621953099966L105.30471875,69.24114956706762L105.4453125,77.88391231745481L105.77336458333333,71.23308605700731L106.24201041666667,83.99692482501268L106.288875,55.97480005770922L106.5700625,76.04068498313427L106.61692708333332,41.33909064531326L106.75752083333333,80.19999823719263L106.94497916666667,65.4196282401681L106.99184375,54.80079359561205L107.08557291666668,48.58498430997133L107.22616666666667,70.87942294031382L107.31989583333333,38.09315215051174L107.413625,85.64990229159594L107.74167708333333,71.7166529148817L107.92913541666667,74.5968880802393L108.30405208333333,59.138441786170006L108.44464583333333,66.52418918162584L108.538375,46.931373842060566L108.58523958333333,43.8226054161787L108.72583333333333,70.96845193952322L108.8195625,67.0095891058445L108.86642708333333,41.99986490607262L108.91329166666667,48.18341090530157L109.52253125,52.16193634271622L109.99117708333333,40.52059355378151L110.13177083333333,56.81158825010061L110.22550000000001,53.82586605101824L110.83473958333333,82.44549791514874L110.88160416666666,74.11998092383146L111.11592708333333,39.06430806219578L111.30338541666666,36.88807587325573L111.35025,66.61741840839386L111.86576041666666,69.99175726622343L111.95948958333334,59.549787148833275L112.05321875,53.2519778162241L112.24067708333334,46.27034242451191L112.47500000000001,77.40879866480827L112.52186458333334,33.98501309752464L112.61559375,72.41145099699497L112.70932291666666,73.53017534315586L112.84991666666666,83.53671967238188L113.41229166666666,64.94031435996294L113.64661458333333,78.55694438517094L113.78720833333334,54.21341452002525L114.02153125000001,40.4554867297411L114.20898958333333,44.81574493646622L114.49017708333334,51.3109188079834L114.81822916666667,72.56896282732487L115.05255208333334,40.740469202399254L115.38060416666667,73.0386168435216L115.47433333333333,34.32084667682648L115.80238541666667,73.27528680860996L116.22416666666666,65.86826133728027L116.50535416666666,55.97720678150654L116.59908333333334,59.88113037496805L116.83340625,63.82722768187523L116.88027083333334,105.17173246666789L117.63010416666667,72.432722479105L117.91129166666667,48.14202184975147L118.33307291666667,69.18878189474344L119.03604166666666,81.26421193778515L119.08290625,31.813647106289864L119.45782291666667,50.020215913653374L119.55155208333333,65.40180529654026L119.69214583333334,57.954221583902836L119.73901041666667,43.28498947620392L119.83273958333334,56.72799251228571L120.06706249999999,56.095360435545444L120.72316666666667,35.1967227011919L120.86376041666666,58.18232624977827L121.00435416666667,49.78047984838486L121.1918125,71.17342568188906L121.37927083333332,35.380121648311615L121.51986458333333,55.14881245046854L121.61359374999999,49.65678083896637L122.08223958333333,77.75836705416441L122.26969791666667,66.36192324757576L122.36342708333333,57.47813205420971L122.59775,25.384740561246872L123.30071875,58.941677279770374L123.48817708333333,61.12642201781273L123.76936458333333,50.25347690284252L123.90995833333334,39.714545488357544L124.05055208333333,44.62742044776678L124.19114583333332,60.04673934727907L124.61292708333333,16.829424306750298L124.94097916666668,31.79696488380432L125.03470833333333,66.80131848156452L125.31589583333333,42.53163877129555L125.36276041666667,58.73496278375387L125.409625,31.439556509256363L125.59708333333333,46.07041950523853L125.6908125,51.0880693718791L126.06572916666666,61.73495388776064L126.11259375,79.970403380692L126.20632291666666,44.4581123739481L126.25318750000001,33.9625943005085L126.30005208333333,39.52755953371525L126.34691666666666,79.11443392932415L126.8155625,56.75593028962612L127.14361458333333,57.1910857334733L127.23734375000001,61.10875732451677L127.3779375,63.745854042470455L127.56539583333333,41.97462397813797L127.75285416666667,49.45584248006344L127.9403125,59.08406960964203L128.783875,81.61318029463291L129.20565625,40.730011492967606L129.72116666666668,73.31228441745043L129.76803125,37.969215765595436L129.908625,63.27037773281336L129.95548958333333,44.583690606057644L130.09608333333333,64.28967471420765L130.23667708333335,56.44473760575056L130.28354166666665,43.45500308275223L130.61159375,41.55468034744263L130.79905208333332,55.54498556256294L130.89278125,49.901079788804054L131.54888541666665,50.47088648378849L131.59575,45.8314021602273L131.78320833333333,26.91366295516491L131.92380208333333,54.4201619848609L132.34558333333334,72.3618131428957L132.4393125,63.30225858092308L132.95482291666667,33.62971472740173L133.282875,69.03972986340523L133.84525,65.20173731446266L133.98584375,55.05313693732023L134.07957291666668,46.34649380296469L135.86042708333335,49.649870574474335L136.56339583333335,58.533200204372406L136.70398958333334,68.1396481320262L136.75085416666667,68.21796226501465L137.12577083333335,47.45013161748648L137.31322916666667,52.68577791005373L137.54755208333333,62.96594365686178L137.82873958333332,79.13685932010412L137.87560416666668,45.29426756501198L138.43797916666668,59.13184802234173L139.04721874999998,73.79352367669344L139.09408333333332,44.43904980272055L139.1878125,76.68793543428183L139.42213541666666,58.25189705193043L139.469,76.42602454125881L139.56272916666668,49.65751274675131L140.031375,67.69312503933907L140.07823958333333,49.47344123572111L140.92180208333332,58.14363404363394L140.96866666666665,43.6008043885231L141.20298958333333,47.285874366760254L141.62477083333334,66.84490326046944L141.76536458333334,55.34657261520624L142.23401041666668,59.98743503540754L142.32773958333334,75.73616518825293L142.42146874999997,64.42989110201597L142.51519791666666,61.23727637529373L142.70265625,85.84867130219936L142.79638541666668,59.413085237145424L142.84325,64.1282330006361L143.03070833333334,49.99672233313322L143.07757291666667,47.186301939189434L143.17130208333333,31.394982665777206L143.31189583333335,65.19788655638695L143.78054166666666,43.703957229852676L144.10859374999998,59.758842431008816L144.34291666666667,28.35141997039318L144.67096875,32.66139413416386L144.76469791666668,60.5012606754899L144.85842708333334,56.586905747652054L144.95215625,56.522438518702984L144.99902083333336,55.14042518287897L145.23334375,40.9176963865757L145.56139583333334,50.26472586393356L145.9363125,50.46345531195402L146.12377083333334,36.10929961502552L146.49868750000002,70.1838204190135L147.34225,54.098900623619556L147.6234375,35.38976173102856L148.23267708333333,41.307849392294884L148.32640625,47.838932901620865L148.42013541666668,63.61792183667421L148.70132291666667,40.662253975868225L149.12310416666665,29.848969236016273L149.40429166666667,40.14431382715702L149.45115625,56.47497001290321L149.5448854166667,40.2258523106575L150.06039583333333,61.99904731661081L150.48217708333334,30.597691118717194L150.57590625,72.74515479058027L150.6696354166667,71.51956531405449L150.90395833333332,62.35961410403252L150.95082291666668,22.788472428917885L151.13828125,27.3181112408638L151.278875,75.70427774637938L151.37260416666666,55.82756131142378L151.65379166666668,77.59216464310884L151.7475208333333,41.79599891602993L151.79438541666667,23.482268258929253L152.02870833333333,42.29992072284222L152.35676041666665,59.65933594107628L152.73167708333335,53.62813226133585L153.57523958333334,55.822484113276005L153.66896875,40.041965425014496L153.95015625,68.60400076210499L154.09075,26.232487589120865L154.18447916666668,48.30078649520874L154.32507291666664,71.61075047403574L154.41880208333333,73.16201913356781L154.46566666666666,36.99274528026581L154.65312500000002,79.85117494314909L154.88744791666664,46.92729230225086L155.02804166666667,66.59610736370087L155.21550000000002,58.87340544909239L155.35609374999999,52.904849119484425L155.4966875,34.54659077525139L155.63728125,19.414351165294647L155.82473958333335,58.6388520821929L156.0590625,27.310409724712372L156.29338541666667,62.13591407239437L156.43397916666666,51.48914824426174L156.6214375,40.384590581059456L156.94948958333333,43.75699746608734L156.99635416666666,64.30149073898792L157.04321875,56.71798977255821L157.23067708333335,48.23087281733751L157.41813541666664,74.34510520845652L157.465,57.14828561246395L157.51186458333333,35.26536378264427L157.65245833333333,48.458456575870514L157.69932291666666,53.49757573753595L157.98051041666665,17.821904450654984L158.16796875,52.01538994163275L158.21483333333333,34.935741528868675L158.3085625,61.876614309847355L158.63661458333334,47.4871424138546L158.68347916666667,63.32612141221762L158.91780208333336,55.077164612710476L158.96466666666666,85.49353777617216L159.01153125,51.09328503906727L159.10526041666665,42.292311519384384L159.33958333333334,49.346214562654495L159.62077083333332,46.1487600132823L160.32373958333335,32.26475286483765L162.29205208333335,54.68946448713541L162.47951041666667,66.37247986346483L162.62010416666666,60.68400024622679L162.71383333333333,23.14915131032467L162.90129166666668,28.25748521089554L163.08874999999998,37.183938056230545L163.18247916666667,41.18229094147682L163.97917708333335,35.662031427025795L164.07290625000002,71.25021665543318L164.11977083333332,48.345294401049614L164.54155208333333,39.23771086335182L164.63528125000002,40.65116326510906L165.52570833333334,27.99012127518654L165.900625,6.993876054883003L166.463,33.572203919291496L166.55672916666668,65.99972780048847L166.7910520833333,61.93819347023964L166.83791666666667,46.75097505748272L166.88478125,14.94524310529232L166.97851041666667,65.21427865326405L167.49402083333334,53.56321665644646L167.63461458333333,65.8988827764988L168.05639583333334,48.78945033252239L168.19698958333333,43.23498237133026L168.57190625,56.045280799269676L168.66563541666667,40.90180541574955L168.7593645833333,70.5538756325841L168.89995833333333,55.367382533848286L168.94682291666666,30.993686199188232L169.36860416666667,55.296064384281635L169.5560625,50.87032350897789L170.07157291666667,45.48757693916559L170.25903125000002,40.62641027569771L170.35276041666665,55.092633582651615L171.10259375,42.59522902965546L171.71183333333335,72.22569807618856L172.08675,22.207812398672104L172.18047916666666,52.69213429838419L172.50853125,42.64222937822342L172.55539583333334,30.86798268556595L172.83658333333335,56.7782633677125L173.2115,36.09834077954292L173.68014583333334,52.54585824161768L173.72701041666667,22.766409695148468L174.75803125000002,52.302970357239246L174.85176041666668,48.316611528396606L175.13294791666667,14.3436808437109L175.27354166666666,27.276741966605186L175.36727083333335,33.15794411301613L175.88278125,36.31001378595829L176.53888541666666,41.41766193509102L176.8669375,45.30822656303644L176.96066666666667,45.242058143019676L177.28871875,8.093280673027039L177.56990624999997,42.98106971383095L177.61677083333333,43.84685727953911L177.80422916666666,45.66179736703634L177.85109375,31.32445576786995L178.03855208333334,45.53038365393877L178.08541666666665,48.675892531871796L178.272875,22.196022748947144L178.50719791666668,61.34385797381401L178.60092708333332,75.71179463714361L178.92897916666666,30.01279789209366L178.97584375,8.249974876642227L179.02270833333336,47.26100928336382L179.397625,40.240543216466904L179.53821875,54.37062303721905L179.72567708333332,62.40021190792322L179.81940625,22.08659264445305L180.05372916666667,51.67458466440439L180.70983333333334,33.39028197526932L181.08475,31.796292319893837L181.27220833333334,38.893120765686035L181.60026041666669,48.087616704404354L181.69398958333332,52.951018653810024L181.8345833333333,29.132965609431267L181.88144791666667,18.4764673858881L181.9283125,48.188521072268486L182.20950000000002,49.49998772889376L182.25636458333332,63.237507820129395L182.7250104166667,45.510958425700665L183.0530625,75.5963444262743L183.28738541666667,26.99902582168579L183.33425,39.22543327510357L183.56857291666668,44.13169468939304L183.896625,45.93247137218714L184.08408333333333,47.86023735255003L184.27154166666665,30.908468395471573L184.31840624999998,38.20868808031082L185.06823958333334,24.24611623585224L185.16196875,40.326789647340775L185.53688541666668,45.680701687932014L185.67747916666667,62.10841807723045L186.146125,58.447105430066586L186.19298958333334,23.861594304442406L186.47417708333333,57.37196586281061L186.66163541666668,15.011906057596207L187.08341666666666,52.19851195067167L187.13028125,45.97729577869177L187.36460416666668,44.69906169176102L187.5520625,50.182257659733295L187.59892708333334,23.232549235224724L187.64579166666667,16.880341351032257L187.92697916666665,59.22412774711847L188.20816666666667,77.61520984768867L188.44248958333333,55.559518218040466L188.53621875,52.89536069333553L189.2391875,30.109475657343864L189.9890208333333,50.39193934947252L190.03588541666664,57.98717721551657L190.08275,38.19662149250507L190.36393750000002,79.52773763984442L190.50453124999999,43.58890923857689L190.55139583333332,60.41976175457239L190.73885416666667,30.553394213318825L190.78571875,59.49497978389263L191.06690625,45.09301270544529L191.72301041666665,31.283772245049477L191.95733333333334,44.05226621031761L192.0510625,38.94773031771183L192.42597916666668,43.129653587937355L192.51970833333334,49.30019009113312L192.66030208333333,61.02157457917929L192.98835416666668,57.67258874326944L193.03521875,47.543466344475746L193.457,16.86183924973011L193.78505208333334,51.279123678803444L194.20683333333332,29.08280025422573L195.05039583333334,26.4868486225605L195.14412499999997,54.432762667536736L195.33158333333333,50.92025148868561L195.61277083333334,50.96396154910326L195.9876875,23.13995960354805L196.31573958333334,18.247637405991554L196.73752083333332,58.49165289849043L196.92497916666667,35.949110716581345L197.29989583333332,45.90688097476959L197.956,6.860154524445534L198.65896875,49.10481686890125L198.84642708333334,27.241874143481255L198.89329166666667,19.997886076569557L199.08075,24.490428373217583L199.22134375000002,40.052146196365356L199.26820833333332,59.61683913320303L199.36193749999998,25.670962661504745L199.45566666666667,40.3031048476696L199.87744791666665,62.08737737685442L200.01804166666668,43.47759331762791L200.06490625,31.447508588433266L200.4866875,22.164280369877815L200.62728125,29.930916532874107L200.8147395833333,37.282593950629234L201.14279166666668,48.72261594235897L201.18965625,43.81076301634312L201.23652083333334,27.092301204800606L201.42397916666667,37.99768763780594L201.47084375,38.71723870933056L201.65830208333333,11.038609474897385L201.70516666666668,39.28542333841324L201.79889583333335,14.084414049983025L202.2675416666667,60.68834553658962L202.64245833333334,32.3433241546154L203.06423958333332,16.06634120643139L203.15796875,42.52860563993454L203.48602083333333,45.33613796532154L203.72034375,36.5313268750906L203.76720833333334,27.50677201151848L204.09526041666666,41.75404939055443L204.42331249999998,41.1503639370203L204.4701770833333,46.454499654471874L204.51704166666667,37.70339477062225L204.56390625,42.27283354103565L204.65763541666666,35.325037345290184L204.98568749999998,38.64625024795532L205.36060416666666,52.7628128528595L205.68865625,50.94815629720688L205.92297916666666,42.857120141386986L206.1104375,19.951756104826927L206.15730208333332,29.880632489919662L206.48535416666664,49.750972755253315L206.6728125,44.325399689376354L207.93815625000002,42.16518375277519L208.50053125000002,25.282062470912933L208.68798958333332,39.89405411481857L208.87544791666667,59.918332390487194L208.9223125,4.958737224340439L209.25036458333332,57.77761421352625L209.4846875,55.68052697181702L209.95333333333335,43.52521347999573L210.56257291666668,38.164193361997604L210.84376041666667,46.791190423071384L210.98435416666666,49.64617147296667L211.82791666666665,55.78793938457966L211.96851041666667,17.133581444621086L212.10910416666667,27.949714690446854L212.53088541666668,36.379749432206154L212.81207291666666,65.83969715237617L213.18698958333334,3.962867885828018L213.46817708333333,21.21551688015461L213.65563541666668,52.782304018735886L213.70250000000001,38.53207263350487L213.74936458333332,52.641316160559654L213.9836875,28.49819715321064L214.40546874999998,56.75440053641796L214.63979166666667,54.75223711878061L214.92097916666665,51.824988417327404L215.06157291666668,18.311873853206635L215.389625,64.3430380448699L215.6708125,34.95949226617813L215.71767708333334,31.692677915096283L215.90513541666667,29.233467757701874L216.04572916666666,21.451507687568665L216.60810416666666,37.58990290760994L216.65496875,28.395888313651085L216.74869791666669,48.449495650827885L217.07675,34.21495082974434L217.3110729166667,43.88252954185009L217.49853124999998,10.474301978945732L217.639125,48.45671582221985L217.73285416666667,34.58360816538334L217.77971875,56.51100493222475L218.4826875,23.342599153518677L218.67014583333332,25.992342710494995L218.71701041666668,26.24647955596447L219.37311458333335,32.72189851105213L219.5137083333333,7.390662387013435L219.6074375,-13.106065660715103L219.65430208333333,10.679209783673286L219.74803125,11.100933730602264L220.49786458333332,39.29896692931652L220.82591666666667,33.99806874990463L221.81007291666668,22.401787742972374L222.18498958333333,46.99464759975672L222.3724479166667,45.92875248938799L222.46617708333335,34.59758694469929L222.65363541666665,58.39395969361067L222.79422916666667,51.93048204481602L222.93482291666666,44.14368215203285L223.02855208333335,7.360001385211945L223.07541666666665,9.48846834897995L223.16914583333332,45.37171791493893L223.262875,51.98191999644041L223.35660416666667,34.7216420173645L223.54406250000002,27.696197658777237L223.73152083333332,41.76303009688854L223.77838541666665,40.23325051367283L223.96584375,39.95546843111515L224.05957291666664,24.838710978627205L224.20016666666666,7.750523641705513L224.6688125,18.085997879505157L225.18432291666664,34.3696800917387L225.41864583333333,18.646494179964066L226.12161458333335,16.589754179120064L226.26220833333332,17.57285799086094L226.87144791666665,45.645365707576275L227.1995,34.5880523622036L227.34009375,63.540702268481255L227.57441666666668,47.92084063589573L227.62128125,20.568062022328377L227.85560416666667,26.32950823009014L228.98035416666667,18.078533738851547L229.54272916666667,60.80204180628061L229.96451041666666,34.07242003083229L230.29256249999997,36.008375465869904L230.66747916666668,38.42174577713013L230.71434375,24.92941479384899L230.76120833333334,31.176135644316673L231.04239583333333,43.736688673496246L231.51104166666667,47.26546007394791L231.60477083333333,53.50274524837732L231.7922291666667,44.73525486141443L232.12028125,46.257497772574425L232.5420625,31.962877169251442L232.58892708333335,45.27546874433756L232.63579166666668,39.19569540023804L232.87011458333336,34.16667129099369L233.05757291666666,53.543197989463806L233.6668125,34.97791524231434L233.76054166666668,22.36023384332657L233.80740625,5.767818421125412L233.85427083333335,41.84554445743561L233.90113541666665,35.51220792531967L234.08859375,64.01806439459324L235.07274999999998,36.966726288199425L235.30707291666667,2.7144969552755356L235.3539375,32.76259522140026L235.40080208333333,41.15836876630783L235.4476666666667,43.853147730231285L235.86944791666667,19.81522563099861L235.9163125,48.305553786456585L236.29122916666668,29.581038236618042L236.90046875000002,23.11684186756611L237.0879270833333,18.7681754976511L237.22852083333333,15.300330474972725L237.32225,34.77234806120396L237.4159791666667,23.000699311494827L237.50970833333335,34.46641060709953L237.60343749999998,21.20817142724991L237.83776041666667,46.663864843547344L238.40013541666667,13.367170795798302L238.68132291666666,15.168415635824203L238.91564583333334,22.3050704151392L239.19683333333333,32.7732375562191L239.24369791666666,54.44331928342581L239.33742708333332,46.80492523312569L239.43115625000002,35.731318697333336L239.47802083333335,37.54795338213444L239.6186145833333,32.48035575449467L240.18098958333331,39.30512550473213L240.36844791666667,24.973804011940956L240.55590625000002,20.89858102798462L240.74336458333332,36.07357460260391L240.83709375,44.66470158845186L240.88395833333334,35.61926427483559L241.21201041666666,20.16677874326706L241.5400625,50.388675436377525L241.58692708333334,36.81869629025459L242.1493020833333,32.649907797575L243.08659375000002,-5.35290715098381L243.18032291666668,25.96567752957344L243.22718749999999,31.582575246691704L243.27405208333332,6.215482234954834L243.36778125,25.177630439400673L243.508375,26.593614846467972L243.93015625,15.948180958628654L244.11761458333334,29.95689596235752L244.21134375000003,51.78824796527624L244.30507291666666,15.807681038975716L244.44566666666665,30.606671825051308L245.14863541666668,2.487513229250908L245.1955,-12.629626661539078L245.38295833333333,20.385546639561653L245.71101041666668,40.87875361740589L246.83576041666666,58.809373408555984L247.58559375,41.33359144628048L248.61661458333333,28.504922792315483L248.99153124999998,29.98837459087372L249.17898958333333,27.639847353100777L249.27271875,42.51912380754948L249.31958333333336,17.94648702442646L249.50704166666665,30.984098866581917L249.60077083333334,4.536129713058472L249.9756875,19.075458079576492L250.21001041666668,43.535104125738144L250.44433333333336,18.730828419327736L250.63179166666666,14.911931410431862L251.33476041666668,25.332161888480186L251.381625,55.98017397522926L251.61594791666667,27.658916518092155L251.80340625,25.172619178891182L252.08459374999998,-2.50747387111187L252.17832291666667,30.904934138059616L252.31891666666667,28.715857297182083L252.4595104166667,27.127841591835022L252.74069791666668,31.128858357667923L253.06875,25.090619131922722L253.25620833333332,41.84427845478058L253.44366666666667,37.395136311650276L253.631125,46.69955029338598L253.67798958333333,8.064492300152779L253.81858333333332,36.086999505758286L254.38095833333333,7.176035374403L254.42782291666668,26.51215548813343L255.03706250000002,38.00548146665096L255.08392708333335,19.29876248538494L255.22452083333332,21.847450017929077L255.31825,51.92327506095171L255.36511458333334,39.1985307186842L255.45884375,17.715665727853775L255.5525729166667,28.901629999279976L255.880625,21.86083535850048L256.1618125,19.544261500239372L256.2086770833333,22.896807968616486L257.14596875,35.97428570687771L257.23969791666667,38.75643204152584L257.33342708333333,2.5336563885211945L257.4740208333333,-1.141799882054329L257.52088541666666,24.87931537628174L257.89580208333336,50.99608636647463L258.27071875,34.40251703560352L258.4113125,-4.5320494920015335L259.1611458333333,37.75257106125355L259.95784375,21.95761862397194L260.23903125,38.74514351785183L260.33276041666664,27.329241514205933L260.42648958333336,26.566303476691246L260.61394791666663,46.316030614078045L260.6608125,21.78006175160408L260.84827083333334,23.80155149102211L261.2700520833333,56.11803638935089L261.4106458333333,63.23258227854967L261.73869791666664,19.15401618182659L262.1604791666667,45.519075348973274L262.20734375,55.388291358947754L262.3479375,19.78464375436306L262.76971875,41.79055246710777L263.0040416666667,38.164074674248695L263.33209375,26.32552559673786L263.4258229166667,40.84774973988533L263.56641666666667,12.407527595758438L263.9413333333333,22.876789301633835L264.17565625,1.6305613070726395L264.5974375,42.358499720692635L264.6911666666667,52.56401087343693L264.78489583333334,43.92803969979286L264.83176041666667,45.42132280021906L264.92548958333333,46.58696177601814L265.2066770833333,21.2987829297781L265.30040625,31.776708841323853L265.39413541666664,31.605350106954575L265.441,14.414748430252075L265.5347291666667,28.687873363494873L265.8159166666667,53.05599796772003L265.86278125,31.236613646149635L266.51888541666665,56.54190330952406L266.61261458333337,12.21932838857174" style="fill: none;" fill="none"></path></g></g></g></g></g></g><g transform="translate(48, 177)" clip-path="url(#clip_1)"><clipPath id="clip_1"><rect width="281" height="23"></rect></clipPath><g><g><line x1="0" y1="0" x2="0" y2="5" style="visibility: inherit;" fill="rgb(0, 0, 0)" stroke="rgb(204, 204, 204)" stroke-width="1px"></line><line x1="23.432291666666664" y1="0" x2="23.432291666666664" y2="5" style="visibility: inherit;" fill="rgb(0, 0, 0)" stroke="rgb(204, 204, 204)" stroke-width="1px"></line><line x1="46.86458333333333" y1="0" x2="46.86458333333333" y2="5" style="visibility: inherit;" fill="rgb(0, 0, 0)" stroke="rgb(204, 204, 204)" stroke-width="1px"></line><line x1="70.296875" y1="0" x2="70.296875" y2="5" style="visibility: inherit;" fill="rgb(0, 0, 0)" stroke="rgb(204, 204, 204)" stroke-width="1px"></line><line x1="93.72916666666666" y1="0" x2="93.72916666666666" y2="5" style="visibility: inherit;" fill="rgb(0, 0, 0)" stroke="rgb(204, 204, 204)" stroke-width="1px"></line><line x1="117.16145833333334" y1="0" x2="117.16145833333334" y2="5" style="visibility: inherit;" fill="rgb(0, 0, 0)" stroke="rgb(204, 204, 204)" stroke-width="1px"></line><line x1="140.59375" y1="0" x2="140.59375" y2="5" style="visibility: inherit;" fill="rgb(0, 0, 0)" stroke="rgb(204, 204, 204)" stroke-width="1px"></line><line x1="164.02604166666669" y1="0" x2="164.02604166666669" y2="5" style="visibility: inherit;" fill="rgb(0, 0, 0)" stroke="rgb(204, 204, 204)" stroke-width="1px"></line><line x1="187.45833333333331" y1="0" x2="187.45833333333331" y2="5" style="visibility: inherit;" fill="rgb(0, 0, 0)" stroke="rgb(204, 204, 204)" stroke-width="1px"></line><line x1="210.890625" y1="0" x2="210.890625" y2="5" style="visibility: inherit;" fill="rgb(0, 0, 0)" stroke="rgb(204, 204, 204)" stroke-width="1px"></line><line x1="234.32291666666669" y1="0" x2="234.32291666666669" y2="5" style="visibility: inherit;" fill="rgb(0, 0, 0)" stroke="rgb(204, 204, 204)" stroke-width="1px"></line><line x1="257.7552083333333" y1="0" x2="257.7552083333333" y2="5" style="visibility: inherit;" fill="rgb(0, 0, 0)" stroke="rgb(204, 204, 204)" stroke-width="1px"></line><line x1="281.1875" y1="0" x2="281.1875" y2="5" style="visibility: inherit;" fill="rgb(0, 0, 0)" stroke="rgb(204, 204, 204)" stroke-width="1px"></line></g><g transform="translate(0, 8)"><text x="0" y="0" dx="0em" dy="0.95em" style="text-anchor: middle; visibility: hidden; font-family: &quot;Helvetica Neue&quot;, sans-serif; font-size: 12px; font-weight: 200;" fill="rgb(50, 49, 63)" stroke="none" stroke-width="1px">-500</text><text x="23.432291666666664" y="0" dx="0em" dy="0.95em" style="text-anchor: middle; visibility: inherit; font-family: &quot;Helvetica Neue&quot;, sans-serif; font-size: 12px; font-weight: 200;" fill="rgb(50, 49, 63)" stroke="none" stroke-width="1px">0</text><text x="46.86458333333333" y="0" dx="0em" dy="0.95em" style="text-anchor: middle; visibility: inherit; font-family: &quot;Helvetica Neue&quot;, sans-serif; font-size: 12px; font-weight: 200;" fill="rgb(50, 49, 63)" stroke="none" stroke-width="1px">500</text><text x="70.296875" y="0" dx="0em" dy="0.95em" style="text-anchor: middle; visibility: inherit; font-family: &quot;Helvetica Neue&quot;, sans-serif; font-size: 12px; font-weight: 200;" fill="rgb(50, 49, 63)" stroke="none" stroke-width="1px">1k</text><text x="93.72916666666666" y="0" dx="0em" dy="0.95em" style="text-anchor: middle; visibility: inherit; font-family: &quot;Helvetica Neue&quot;, sans-serif; font-size: 12px; font-weight: 200;" fill="rgb(50, 49, 63)" stroke="none" stroke-width="1px">1.5k</text><text x="117.16145833333334" y="0" dx="0em" dy="0.95em" style="text-anchor: middle; visibility: inherit; font-family: &quot;Helvetica Neue&quot;, sans-serif; font-size: 12px; font-weight: 200;" fill="rgb(50, 49, 63)" stroke="none" stroke-width="1px">2k</text><text x="140.59375" y="0" dx="0em" dy="0.95em" style="text-anchor: middle; visibility: inherit; font-family: &quot;Helvetica Neue&quot;, sans-serif; font-size: 12px; font-weight: 200;" fill="rgb(50, 49, 63)" stroke="none" stroke-width="1px">2.5k</text><text x="164.02604166666669" y="0" dx="0em" dy="0.95em" style="text-anchor: middle; visibility: inherit; font-family: &quot;Helvetica Neue&quot;, sans-serif; font-size: 12px; font-weight: 200;" fill="rgb(50, 49, 63)" stroke="none" stroke-width="1px">3k</text><text x="187.45833333333331" y="0" dx="0em" dy="0.95em" style="text-anchor: middle; visibility: inherit; font-family: &quot;Helvetica Neue&quot;, sans-serif; font-size: 12px; font-weight: 200;" fill="rgb(50, 49, 63)" stroke="none" stroke-width="1px">3.5k</text><text x="210.890625" y="0" dx="0em" dy="0.95em" style="text-anchor: middle; visibility: inherit; font-family: &quot;Helvetica Neue&quot;, sans-serif; font-size: 12px; font-weight: 200;" fill="rgb(50, 49, 63)" stroke="none" stroke-width="1px">4k</text><text x="234.32291666666669" y="0" dx="0em" dy="0.95em" style="text-anchor: middle; visibility: inherit; font-family: &quot;Helvetica Neue&quot;, sans-serif; font-size: 12px; font-weight: 200;" fill="rgb(50, 49, 63)" stroke="none" stroke-width="1px">4.5k</text><text x="257.7552083333333" y="0" dx="0em" dy="0.95em" style="text-anchor: middle; visibility: inherit; font-family: &quot;Helvetica Neue&quot;, sans-serif; font-size: 12px; font-weight: 200;" fill="rgb(50, 49, 63)" stroke="none" stroke-width="1px">5k</text><text x="281.1875" y="0" dx="0em" dy="0.95em" style="text-anchor: middle; visibility: hidden; font-family: &quot;Helvetica Neue&quot;, sans-serif; font-size: 12px; font-weight: 200;" fill="rgb(50, 49, 63)" stroke="none" stroke-width="1px">5.5k</text></g><line x1="0" y1="0" x2="281.1875" y2="0" fill="rgb(0, 0, 0)" stroke="rgb(204, 204, 204)" stroke-width="1px"></line></g></g></g></g></svg>